<svg width="94" height="80" viewBox="0 0 94 80" fill="none" xmlns="http://www.w3.org/2000/svg">
<path d="M10.912 12.456H11.232L13.632 5.032H27.84L30.08 12.456H31.104V17.672H29.024V18.6H12.64V17.672H10.976V22.472L9.376 22.76V34.344H1.6L1.44 29H3.232V23.88L1.12 24.264V18.664L3.232 18.28V13.16H1.408V8.04H3.232V4.904H9.376V8.04H10.912V12.456ZM30.144 19.432V34.248H11.552V19.432H30.144ZM24.128 24.232H17.504V29.512H24.128V24.232ZM16.96 14.376H24.256L22.656 9.8H18.592L16.96 14.376ZM9.376 17.096L10.4 16.904V13.16H9.376V17.096ZM55.744 21.672V28.264H57.056V25.864H63.04V34.312H48.384V21.672H46.496L43.84 34.376H33.344V27.592H37.728L39.264 21.672H33.12V15.496H44.16V4.84H51.936V15.496H62.912V21.672H55.744ZM61.664 6.216L60.768 14.728H53.632L54.592 6.216H61.664ZM34.272 6.408H41.056L42.464 14.728H35.424L34.272 6.408ZM10.656 68.968H12.32V59.88H1.12V55.368H22.048V54.408H3.2V50.6H22.048V49.608H2.208V45.288H28.896V55.368H30.784V59.88H19.456V74.28H10.048L9.92 70.792L8.576 74.088H1.344V68.072H3.744L5.088 65.544H12.064L10.656 68.968ZM27.2 65.544L28.352 68.072H30.816V74.088H23.584L20.096 65.544H27.2ZM3.264 60.328H10.56L11.488 64.936H4.192L3.264 60.328ZM20.672 64.936L21.6 60.328H28.896L27.968 64.936H20.672Z" fill="black"/>
<path d="M33.94 49.1H43.02V52.86H40.4V64.52H36.52V52.86H33.94V49.1ZM43.5253 64.52V49.1H47.4253V64.52H43.5253ZM48.5839 64.52V49.1H54.5839L56.5639 59.08H56.5839L58.4239 49.1H64.5839V64.52H61.0439V52.86H61.0239L58.3839 64.52H54.7439L52.1039 52.86H52.0839V64.52H48.5839ZM65.7519 64.52V49.1H74.4919V52.8H69.6519V54.82H74.0719V58.52H69.6519V60.66H74.4319V64.52H65.7519Z" fill="black"/>
<path d="M34.348 73.888V65.896L35.008 65.26H39.7L40.36 65.896V68.488L38.032 68.644V67.312H36.676V72.448H38.044V70.636H40.396V73.888L39.808 74.512H35.008L34.348 73.888ZM44.7586 67.3H43.4026V72.448H44.7586V67.3ZM41.0746 73.888V65.896L41.7346 65.26H46.5346L47.1106 65.896V73.888L46.5346 74.512H41.7346L41.0746 73.888ZM47.8011 74.512V65.26H50.1411V72.196H52.4931V74.512H47.8011ZM52.8519 74.512V65.26H55.1919V72.196H57.5439V74.512H52.8519ZM57.9027 74.512V65.26H63.1467V67.48H60.2427V68.692H62.8947V70.912H60.2427V72.196H63.1107V74.512H57.9027ZM63.7621 73.888V65.896L64.4221 65.26H69.1141L69.7741 65.896V68.488L67.4461 68.644V67.312H66.0901V72.448H67.4581V70.636H69.8101V73.888L69.2221 74.512H64.4221L63.7621 73.888ZM70.1046 65.26H75.5526V67.516H73.9806V74.512H71.6526V67.516H70.1046V65.26ZM75.8558 74.512V65.26H78.1958V74.512H75.8558ZM82.575 67.3H81.219V72.448H82.575V67.3ZM78.891 73.888V65.896L79.551 65.26H84.351L84.927 65.896V73.888L84.351 74.512H79.551L78.891 73.888ZM85.6175 74.512V65.26H88.3655L90.7295 70.672H90.7415V65.26H92.8175V74.512H90.0695L87.7055 69.076H87.6935V74.512H85.6175Z" fill="black"/>
</svg>
